<svg width="356" height="452" viewBox="0 0 356 452" fill="none" xmlns="http://www.w3.org/2000/svg">
<path d="M14.8781 45.6629C15.1219 43.7597 17.8781 43.7597 18.1219 45.6629V45.6629C18.2416 46.5976 19.1284 47.2371 20.054 47.0606V47.0606C21.9614 46.6971 22.7703 49.3807 21.0279 50.2376V50.2376C20.1886 50.6504 19.8414 51.6814 20.2772 52.5089L20.3586 52.6636C21.2519 54.36 19.0039 55.9469 17.7046 54.537V54.537C17.0558 53.8331 15.9442 53.8331 15.2954 54.537V54.537C13.9961 55.9469 11.7481 54.36 12.6414 52.6636L12.7228 52.5089C13.1586 51.6814 12.8114 50.6504 11.9721 50.2376V50.2376C10.2297 49.3807 11.0386 46.6971 12.946 47.0606V47.0606C13.8716 47.2371 14.7584 46.5976 14.8781 45.6629V45.6629Z" fill="#B4D0E3"/>
<path d="M236.882 431.26C237.132 429.369 239.868 429.369 240.118 431.26V431.26C240.24 432.186 241.114 432.821 242.033 432.651V432.651C243.908 432.304 244.754 434.907 243.033 435.728V435.728C242.189 436.131 241.856 437.158 242.301 437.979V437.979C243.211 439.656 240.997 441.265 239.683 439.881V439.881C239.04 439.204 237.96 439.204 237.317 439.881V439.881C236.003 441.265 233.789 439.656 234.699 437.979V437.979C235.144 437.158 234.811 436.131 233.967 435.728V435.728C232.246 434.907 233.092 432.304 234.967 432.651V432.651C235.886 432.821 236.76 432.186 236.882 431.26V431.26Z" fill="#B4D0E3"/>
<path d="M133.5 229V229C133.592 238.074 140.926 245.408 150 245.5V245.5V245.5C140.926 245.592 133.592 252.926 133.5 262V262V262C133.408 252.926 126.074 245.592 117 245.5V245.5V245.5C126.074 245.408 133.408 238.074 133.5 229V229Z" fill="#B4D0E3"/>
<path d="M339.5 102V102C339.592 111.074 346.926 118.408 356 118.5V118.5V118.5C346.926 118.592 339.592 125.926 339.5 135V135V135C339.408 125.926 332.074 118.592 323 118.5V118.5V118.5C332.074 118.408 339.408 111.074 339.5 102V102Z" fill="#B4D0E3"/>
<path d="M304.882 249.74C305.132 251.631 307.868 251.631 308.118 249.74V249.74C308.24 248.814 309.114 248.179 310.033 248.349V248.349C311.908 248.696 312.754 246.093 311.033 245.272V245.272C310.189 244.869 309.856 243.842 310.301 243.021V243.021C311.211 241.344 308.997 239.735 307.683 241.119V241.119C307.04 241.796 305.96 241.796 305.317 241.119V241.119C304.003 239.735 301.789 241.344 302.699 243.021V243.021C303.144 243.842 302.811 244.869 301.967 245.272V245.272C300.246 246.093 301.092 248.696 302.967 248.349V248.349C303.886 248.179 304.76 248.814 304.882 249.74V249.74Z" fill="#B4D0E3"/>
<path d="M16.5 339V339C16.5917 329.926 23.9255 322.592 33 322.5V322.5V322.5C23.9255 322.408 16.5917 315.074 16.5 306V306V306C16.4083 315.074 9.07446 322.408 0 322.5V322.5V322.5C9.07446 322.592 16.4083 329.926 16.5 339V339Z" fill="#B4D0E3"/>
<path d="M238.5 33V33C238.592 23.9255 245.926 16.5917 255 16.5V16.5V16.5C245.926 16.4083 238.592 9.07446 238.5 -1.3113e-06V-1.3113e-06V-1.3113e-06C238.408 9.07446 231.074 16.4083 222 16.5V16.5V16.5C231.074 16.5917 238.408 23.9255 238.5 33V33Z" fill="#B4D0E3"/>
<path d="M97.5 118V118C104.97 114.906 110.906 108.97 114 101.5V101.5V101.5C110.906 94.0296 104.97 88.0943 97.5 85V85V85C90.0296 88.0943 84.0943 94.0296 81 101.5V101.5V101.5C84.0943 108.97 90.0296 114.906 97.5 118V118Z" fill="#B4D0E3"/>
</svg>
