<svg width="100" height="100" viewBox="0 0 100 100" fill="none" xmlns="http://www.w3.org/2000/svg">
<path d="M49.048 74.592C43.5013 74.592 39.1067 73.056 35.864 69.984C32.6213 66.8693 31 62.432 31 56.672V45.92C31 40.16 32.6213 35.744 35.864 32.672C39.1067 29.5573 43.5013 28 49.048 28C54.552 28 58.7973 29.5147 61.784 32.544C64.8133 35.5307 66.328 39.648 66.328 44.896V45.28H58.008V44.64C58.008 41.9947 57.2613 39.8187 55.768 38.112C54.3173 36.4053 52.0773 35.552 49.048 35.552C46.0613 35.552 43.7147 36.4693 42.008 38.304C40.3013 40.1387 39.448 42.6347 39.448 45.792V56.8C39.448 59.9147 40.3013 62.4107 42.008 64.288C43.7147 66.1227 46.0613 67.04 49.048 67.04C52.0773 67.04 54.3173 66.1867 55.768 64.48C57.2613 62.7307 58.008 60.5547 58.008 57.952V56.8H66.328V57.696C66.328 62.944 64.8133 67.0827 61.784 70.112C58.7973 73.0987 54.552 74.592 49.048 74.592Z" fill="black"/>
<path fill-rule="evenodd" clip-rule="evenodd" d="M66.3278 57.8C66.3079 62.9987 64.7933 67.1027 61.784 70.112C58.7973 73.0987 54.552 74.592 49.048 74.592C43.5013 74.592 39.1067 73.056 35.864 69.984C32.6213 66.8693 31 62.432 31 56.672V45.92C31 40.16 32.6213 35.744 35.864 32.672C39.1067 29.5573 43.5013 28 49.048 28C54.552 28 58.7973 29.5147 61.784 32.544C64.6938 35.4128 66.2061 39.3248 66.3209 44.28C66.3256 44.4836 66.328 44.6889 66.328 44.896V45.28H58.008V44.64C58.008 41.9947 57.2613 39.8187 55.768 38.112C54.3173 36.4053 52.0773 35.552 49.048 35.552C46.0613 35.552 43.7147 36.4693 42.008 38.304C40.3013 40.1387 39.448 42.6347 39.448 45.792V56.8C39.448 59.9147 40.3013 62.4107 42.008 64.288C43.7147 66.1227 46.0613 67.04 49.048 67.04C52.0773 67.04 54.3173 66.1867 55.768 64.48C57.2613 62.7307 58.008 60.5547 58.008 57.952V56.8H66.328V57.696C66.328 57.7307 66.3279 57.7654 66.3278 57.8ZM62.4912 31.8369C65.7503 35.0531 67.328 39.4497 67.328 44.896V46.28H57.008V44.64C57.008 42.1942 56.3232 40.2651 55.0154 38.7705L55.0107 38.7651L55.0061 38.7596C53.8062 37.3481 51.8931 36.552 49.048 36.552C46.2812 36.552 44.2216 37.3926 42.7402 38.9851C41.2472 40.59 40.448 42.8189 40.448 45.792V56.8C40.448 59.7227 41.2433 61.9579 42.7441 63.6111C44.2252 65.2009 46.2837 66.04 49.048 66.04C51.8931 66.04 53.8062 65.2439 55.0061 63.8324L55.0074 63.8307C56.3259 62.2863 57.008 60.35 57.008 57.952V55.8H67.328V57.696C67.328 63.1458 65.7485 67.5617 62.4911 70.8191C59.265 74.0452 54.7335 75.592 49.048 75.592C43.3104 75.592 38.647 73.998 35.1763 70.71L35.1713 70.7052C31.6809 67.3526 30 62.6235 30 56.672V45.92C30 39.9706 31.6798 35.26 35.1737 31.9484C38.6437 28.6168 43.3081 27 49.048 27C54.7345 27 59.2661 28.5688 62.4912 31.8369Z" fill="black"/>
<path d="M52.048 71.592C46.5013 71.592 42.1067 70.056 38.864 66.984C35.6213 63.8693 34 59.432 34 53.672V42.92C34 37.16 35.6213 32.744 38.864 29.672C42.1067 26.5573 46.5013 25 52.048 25C57.552 25 61.7973 26.5147 64.784 29.544C67.8133 32.5307 69.328 36.648 69.328 41.896V42.28H61.008V41.64C61.008 38.9947 60.2613 36.8187 58.768 35.112C57.3173 33.4053 55.0773 32.552 52.048 32.552C49.0613 32.552 46.7147 33.4693 45.008 35.304C43.3013 37.1387 42.448 39.6347 42.448 42.792V53.8C42.448 56.9147 43.3013 59.4107 45.008 61.288C46.7147 63.1227 49.0613 64.04 52.048 64.04C55.0773 64.04 57.3173 63.1867 58.768 61.48C60.2613 59.7307 61.008 57.5547 61.008 54.952V53.8H69.328V54.696C69.328 59.944 67.8133 64.0827 64.784 67.112C61.7973 70.0987 57.552 71.592 52.048 71.592Z" fill="white"/>
<path fill-rule="evenodd" clip-rule="evenodd" d="M69.3278 54.8C69.3079 59.9987 67.7933 64.1027 64.784 67.112C61.7973 70.0987 57.552 71.592 52.048 71.592C46.5013 71.592 42.1067 70.056 38.864 66.984C35.6213 63.8693 34 59.432 34 53.672V42.92C34 37.16 35.6213 32.744 38.864 29.672C42.1067 26.5573 46.5013 25 52.048 25C57.552 25 61.7973 26.5147 64.784 29.544C67.6938 32.4128 69.2061 36.3248 69.3209 41.28C69.3256 41.4836 69.328 41.6889 69.328 41.896V42.28H61.008V41.64C61.008 38.9947 60.2613 36.8187 58.768 35.112C57.3173 33.4053 55.0773 32.552 52.048 32.552C49.0613 32.552 46.7147 33.4693 45.008 35.304C43.3013 37.1387 42.448 39.6347 42.448 42.792V53.8C42.448 56.9147 43.3013 59.4107 45.008 61.288C46.7147 63.1227 49.0613 64.04 52.048 64.04C55.0773 64.04 57.3173 63.1867 58.768 61.48C60.2613 59.7307 61.008 57.5547 61.008 54.952V53.8H69.328V54.696C69.328 54.7307 69.3279 54.7654 69.3278 54.8ZM65.4912 28.8369C68.7503 32.0531 70.328 36.4497 70.328 41.896V43.28H60.008V41.64C60.008 39.1942 59.3232 37.2651 58.0154 35.7705L58.0107 35.7651L58.0061 35.7596C56.8062 34.3481 54.8931 33.552 52.048 33.552C49.2812 33.552 47.2216 34.3926 45.7402 35.9851C44.2472 37.59 43.448 39.8189 43.448 42.792V53.8C43.448 56.7227 44.2433 58.9579 45.7441 60.6111C47.2252 62.2009 49.2837 63.04 52.048 63.04C54.8931 63.04 56.8062 62.2439 58.0061 60.8324L58.0074 60.8307C59.3259 59.2863 60.008 57.35 60.008 54.952V52.8H70.328V54.696C70.328 60.1458 68.7485 64.5617 65.4911 67.8191C62.265 71.0452 57.7335 72.592 52.048 72.592C46.3104 72.592 41.647 70.998 38.1763 67.71L38.1713 67.7052C34.6809 64.3526 33 59.6235 33 53.672V42.92C33 36.9706 34.6798 32.26 38.1737 28.9484C41.6437 25.6168 46.3081 24 52.048 24C57.7345 24 62.2661 25.5688 65.4912 28.8369Z" fill="black"/>
</svg>
