<svg width="479" height="125" viewBox="0 0 479 125" fill="none" xmlns="http://www.w3.org/2000/svg">
<path d="M216.646 87.4867C208.915 87.4867 202.789 85.3916 198.268 81.2015C193.748 76.9532 191.488 70.9008 191.488 63.0442V48.3788C191.488 40.5222 193.748 34.4989 198.268 30.3088C202.789 26.0604 208.915 23.9363 216.646 23.9363C224.319 23.9363 230.237 26.0023 234.4 30.1342C238.623 34.2079 240.734 39.8239 240.734 46.982V47.5058H229.136V46.6329C229.136 43.0247 228.095 40.0567 226.014 37.7288C223.992 35.401 220.869 34.237 216.646 34.237C212.483 34.237 209.212 35.4883 206.833 37.9907C204.454 40.4931 203.264 43.8976 203.264 48.2042V63.2188C203.264 67.4672 204.454 70.8717 206.833 73.4323C209.212 75.9347 212.483 77.186 216.646 77.186C220.869 77.186 223.992 76.022 226.014 73.6942C228.095 71.3081 229.136 68.3401 229.136 64.7901V63.2188H240.734V64.441C240.734 71.5991 238.623 77.2442 234.4 81.3761C230.237 85.4498 224.319 87.4867 216.646 87.4867Z" fill="black"/>
<path d="M271.741 87.4867C267.339 87.4867 263.384 86.6138 259.875 84.8679C256.366 83.122 253.6 80.5905 251.578 77.2733C249.556 73.9561 248.545 69.9696 248.545 65.3139V63.9172C248.545 59.2615 249.556 55.275 251.578 51.9578C253.6 48.6406 256.366 46.1091 259.875 44.3632C263.384 42.6173 267.339 41.7444 271.741 41.7444C276.142 41.7444 280.097 42.6173 283.606 44.3632C287.115 46.1091 289.881 48.6406 291.903 51.9578C293.925 55.275 294.936 59.2615 294.936 63.9172V65.3139C294.936 69.9696 293.925 73.9561 291.903 77.2733C289.881 80.5905 287.115 83.122 283.606 84.8679C280.097 86.6138 276.142 87.4867 271.741 87.4867ZM271.741 77.7097C275.19 77.7097 278.045 76.6331 280.305 74.4798C282.565 72.2684 283.695 69.1258 283.695 65.052V64.1791C283.695 60.1053 282.565 56.9918 280.305 54.8386C278.104 52.6271 275.25 51.5214 271.741 51.5214C268.291 51.5214 265.436 52.6271 263.176 54.8386C260.916 56.9918 259.786 60.1053 259.786 64.1791V65.052C259.786 69.1258 260.916 72.2684 263.176 74.4798C265.436 76.6331 268.291 77.7097 271.741 77.7097Z" fill="black"/>
<path d="M305.312 86.2646V25.1584H316.553V86.2646H305.312Z" fill="black"/>
<path d="M355.595 87.4867C351.61 87.4867 348.547 86.8175 346.406 85.4789C344.265 84.1404 342.689 82.6564 341.677 81.0269H340.072V86.2646H329.009V25.1584H340.25V47.9423H341.856C342.51 46.8948 343.373 45.9054 344.443 44.9743C345.573 44.0431 347.03 43.2866 348.815 42.7046C350.658 42.0644 352.918 41.7444 355.595 41.7444C359.163 41.7444 362.464 42.6173 365.497 44.3632C368.531 46.0509 370.969 48.5533 372.813 51.8705C374.657 55.1877 375.579 59.2033 375.579 63.9172V65.3139C375.579 70.0278 374.657 74.0434 372.813 77.3606C370.969 80.6777 368.531 83.2093 365.497 84.9552C362.464 86.6429 359.163 87.4867 355.595 87.4867ZM352.205 77.8843C355.654 77.8843 358.539 76.8077 360.858 74.6544C363.178 72.443 364.338 69.2422 364.338 65.052V64.1791C364.338 59.9889 363.178 56.8172 360.858 54.664C358.598 52.4525 355.714 51.3468 352.205 51.3468C348.755 51.3468 345.871 52.4525 343.551 54.664C341.231 56.8172 340.072 59.9889 340.072 64.1791V65.052C340.072 69.2422 341.231 72.443 343.551 74.6544C345.871 76.8077 348.755 77.8843 352.205 77.8843Z" fill="black"/>
<path d="M399.639 87.4867C396.487 87.4867 393.662 86.963 391.164 85.9154C388.666 84.8097 386.673 83.2384 385.186 81.2015C383.759 79.1064 383.045 76.5749 383.045 73.6069C383.045 70.6389 383.759 68.1655 385.186 66.1868C386.673 64.15 388.695 62.6369 391.253 61.6475C393.87 60.6 396.844 60.0762 400.174 60.0762H412.307V57.632C412.307 55.5951 411.653 53.9365 410.345 52.6562C409.036 51.3177 406.954 50.6484 404.1 50.6484C401.304 50.6484 399.223 51.2886 397.855 52.5689C396.487 53.791 395.595 55.3914 395.178 57.3701L384.83 53.9656C385.543 51.7541 386.673 49.7464 388.22 47.9423C389.825 46.08 391.937 44.596 394.554 43.4903C397.23 42.3263 400.472 41.7444 404.278 41.7444C410.107 41.7444 414.716 43.1702 418.106 46.0218C421.496 48.8734 423.191 53.0054 423.191 58.4176V74.5671C423.191 76.313 424.024 77.186 425.689 77.186H429.258V86.2646H421.764C419.563 86.2646 417.749 85.7408 416.322 84.6933C414.894 83.6458 414.181 82.249 414.181 80.5032V80.4159H412.486C412.248 81.1142 411.712 82.0454 410.88 83.2093C410.047 84.315 408.739 85.3044 406.954 86.1773C405.17 87.0502 402.732 87.4867 399.639 87.4867ZM401.602 78.5827C404.754 78.5827 407.311 77.7388 409.274 76.0511C411.296 74.3052 412.307 72.0065 412.307 69.1549V68.2819H400.977C398.896 68.2819 397.26 68.7184 396.07 69.5913C394.881 70.4643 394.286 71.6864 394.286 73.2577C394.286 74.829 394.911 76.1093 396.16 77.0987C397.409 78.088 399.223 78.5827 401.602 78.5827Z" fill="black"/>
<path d="M441.074 103.724V94.1211H465.162C466.827 94.1211 467.66 93.2482 467.66 91.5023V80.5905H466.054C465.578 81.5798 464.835 82.5691 463.824 83.5585C462.813 84.5478 461.445 85.3626 459.72 86.0027C457.995 86.6429 455.795 86.963 453.118 86.963C449.669 86.963 446.635 86.2064 444.018 84.6933C441.461 83.122 439.469 80.9687 438.041 78.2335C436.614 75.4983 435.9 72.3557 435.9 68.8057V42.9665H447.141V67.9327C447.141 71.1917 447.944 73.636 449.55 75.2655C451.215 76.895 453.564 77.7097 456.597 77.7097C460.047 77.7097 462.723 76.604 464.627 74.3925C466.53 72.1229 467.481 68.9803 467.481 64.9647V42.9665H478.722V93.9465C478.722 96.9145 477.83 99.2715 476.046 101.017C474.262 102.821 471.883 103.724 468.909 103.724H441.074Z" fill="black"/>
<rect width="125" height="125" rx="2" fill="url(#paint0_linear_98_2)"/>
<path d="M63.3461 91.4048C56.4128 91.4048 50.9195 89.4848 46.8661 85.6448C42.8128 81.7515 40.7861 76.2048 40.7861 69.0048V55.5648C40.7861 48.3648 42.8128 42.8448 46.8661 39.0048C50.9195 35.1115 56.4128 33.1648 63.3461 33.1648C70.2261 33.1648 75.5328 35.0581 79.2661 38.8448C83.0528 42.5781 84.9461 47.7248 84.9461 54.2848V54.7648H74.5461V53.9648C74.5461 50.6581 73.6128 47.9381 71.7461 45.8048C69.9328 43.6715 67.1328 42.6048 63.3461 42.6048C59.6128 42.6048 56.6795 43.7515 54.5461 46.0448C52.4128 48.3381 51.3461 51.4581 51.3461 55.4048V69.1648C51.3461 73.0581 52.4128 76.1781 54.5461 78.5248C56.6795 80.8181 59.6128 81.9648 63.3461 81.9648C67.1328 81.9648 69.9328 80.8981 71.7461 78.7648C73.6128 76.5781 74.5461 73.8581 74.5461 70.6048V69.1648H84.9461V70.2848C84.9461 76.8448 83.0528 82.0181 79.2661 85.8048C75.5328 89.5381 70.2261 91.4048 63.3461 91.4048Z" fill="white"/>
<defs>
<linearGradient id="paint0_linear_98_2" x1="-6.77565e-06" y1="125" x2="146.821" y2="72.6556" gradientUnits="userSpaceOnUse">
<stop stop-color="#ECB85B"/>
<stop offset="0.233568" stop-color="#FF4C00"/>
<stop offset="0.723437" stop-color="#B57CFF"/>
<stop offset="1" stop-color="#3DD2DD"/>
</linearGradient>
</defs>
</svg>
