<svg width="141" height="40" viewBox="0 0 141 40" fill="none" xmlns="http://www.w3.org/2000/svg">
<path d="M12.3414 31.86C8.5485 31.86 5.5434 30.8096 3.32604 28.709C1.10868 26.5791 0 23.5449 0 19.6061V12.2538C0 8.3151 1.10868 5.29541 3.32604 3.19475C5.5434 1.06492 8.5485 0 12.3414 0C16.105 0 19.008 1.03574 21.0503 3.10722C23.1218 5.14953 24.1575 7.96499 24.1575 11.5536V11.8162H18.4683V11.3786C18.4683 9.56966 17.9577 8.08169 16.9365 6.91466C15.9446 5.74763 14.4128 5.16411 12.3414 5.16411C10.2991 5.16411 8.69438 5.79139 7.52735 7.04595C6.36032 8.30051 5.77681 10.0073 5.77681 12.1663V19.6937C5.77681 21.8235 6.36032 23.5303 7.52735 24.814C8.69438 26.0686 10.2991 26.6958 12.3414 26.6958C14.4128 26.6958 15.9446 26.1123 16.9365 24.9453C17.9577 23.7491 18.4683 22.2611 18.4683 20.4814V19.6937H24.1575V20.3063C24.1575 23.895 23.1218 26.725 21.0503 28.7965C19.008 30.8388 16.105 31.86 12.3414 31.86Z" fill="black"/>
<path d="M39.3678 31.86C37.2088 31.86 35.2686 31.4223 33.5472 30.547C31.8259 29.6718 30.4692 28.4026 29.4772 26.7396C28.4852 25.0766 27.9893 23.078 27.9893 20.744V20.0438C27.9893 17.7097 28.4852 15.7112 29.4772 14.0481C30.4692 12.3851 31.8259 11.116 33.5472 10.2407C35.2686 9.36543 37.2088 8.92779 39.3678 8.92779C41.5268 8.92779 43.467 9.36543 45.1884 10.2407C46.9098 11.116 48.2664 12.3851 49.2584 14.0481C50.2504 15.7112 50.7464 17.7097 50.7464 20.0438V20.744C50.7464 23.078 50.2504 25.0766 49.2584 26.7396C48.2664 28.4026 46.9098 29.6718 45.1884 30.547C43.467 31.4223 41.5268 31.86 39.3678 31.86ZM39.3678 26.9584C41.06 26.9584 42.4604 26.4187 43.5691 25.3392C44.6778 24.2305 45.2322 22.655 45.2322 20.6127V20.1751C45.2322 18.1327 44.6778 16.5718 43.5691 15.4923C42.4896 14.3837 41.0892 13.8293 39.3678 13.8293C37.6756 13.8293 36.2752 14.3837 35.1665 15.4923C34.0578 16.5718 33.5035 18.1327 33.5035 20.1751V20.6127C33.5035 22.655 34.0578 24.2305 35.1665 25.3392C36.2752 26.4187 37.6756 26.9584 39.3678 26.9584Z" fill="black"/>
<path d="M55.8363 31.2473V0.612691H61.3505V31.2473H55.8363Z" fill="black"/>
<path d="M80.5026 31.86C78.5478 31.86 77.0453 31.5244 75.9949 30.8534C74.9446 30.1823 74.1714 29.4384 73.6755 28.6214H72.8877V31.2473H67.461V0.612691H72.9752V12.035H73.763C74.0839 11.5098 74.507 11.0139 75.0321 10.547C75.5865 10.0802 76.3013 9.70095 77.1766 9.40919C78.081 9.08826 79.1897 8.92779 80.5026 8.92779C82.2531 8.92779 83.8724 9.36543 85.3604 10.2407C86.8483 11.0868 88.0445 12.3414 88.949 14.0044C89.8534 15.6674 90.3057 17.6805 90.3057 20.0438V20.744C90.3057 23.1072 89.8534 25.1203 88.949 26.7834C88.0445 28.4464 86.8483 29.7155 85.3604 30.5908C83.8724 31.4369 82.2531 31.86 80.5026 31.86ZM78.8396 27.046C80.5318 27.046 81.9468 26.5062 83.0847 25.4267C84.2225 24.318 84.7914 22.7133 84.7914 20.6127V20.1751C84.7914 18.0744 84.2225 16.4843 83.0847 15.4048C81.976 14.2961 80.5609 13.7418 78.8396 13.7418C77.1474 13.7418 75.7324 14.2961 74.5945 15.4048C73.4566 16.4843 72.8877 18.0744 72.8877 20.1751V20.6127C72.8877 22.7133 73.4566 24.318 74.5945 25.4267C75.7324 26.5062 77.1474 27.046 78.8396 27.046Z" fill="black"/>
<path d="M102.109 31.86C100.562 31.86 99.1763 31.5974 97.951 31.0722C96.7256 30.5179 95.7482 29.7301 95.0188 28.709C94.3186 27.6586 93.9685 26.3895 93.9685 24.9015C93.9685 23.4136 94.3186 22.1736 95.0188 21.1816C95.7482 20.1605 96.7402 19.4019 97.9947 18.9059C99.2785 18.3807 100.737 18.1182 102.371 18.1182H108.323V16.8928C108.323 15.8716 108.002 15.0401 107.36 14.3983C106.718 13.7272 105.697 13.3917 104.297 13.3917C102.925 13.3917 101.904 13.7126 101.233 14.3545C100.562 14.9672 100.125 15.7695 99.9203 16.7615L94.8437 15.0547C95.1939 13.946 95.7482 12.9395 96.5068 12.035C97.2945 11.1014 98.3303 10.3574 99.614 9.80306C100.927 9.21955 102.517 8.92779 104.384 8.92779C107.243 8.92779 109.505 9.6426 111.168 11.0722C112.831 12.5018 113.662 14.5733 113.662 17.2867V25.3829C113.662 26.2582 114.071 26.6958 114.888 26.6958H116.638V31.2473H112.962C111.882 31.2473 110.993 30.9847 110.292 30.4595C109.592 29.9344 109.242 29.2341 109.242 28.3589V28.3151H108.41C108.294 28.6652 108.031 29.132 107.623 29.7155C107.214 30.2699 106.572 30.7659 105.697 31.2035C104.822 31.6411 103.626 31.86 102.109 31.86ZM103.071 27.3961C104.618 27.3961 105.872 26.973 106.835 26.1269C107.827 25.2516 108.323 24.0992 108.323 22.6696V22.2319H102.765C101.744 22.2319 100.941 22.4508 100.358 22.8884C99.7745 23.326 99.4827 23.9387 99.4827 24.7265C99.4827 25.5142 99.789 26.1561 100.402 26.6521C101.014 27.1481 101.904 27.3961 103.071 27.3961Z" fill="black"/>
<path d="M122.435 40V35.186H134.251C135.068 35.186 135.476 34.7484 135.476 33.8731V28.4026H134.689C134.455 28.8986 134.09 29.3946 133.594 29.8906C133.098 30.3866 132.427 30.795 131.581 31.116C130.735 31.4369 129.656 31.5974 128.343 31.5974C126.651 31.5974 125.163 31.2181 123.879 30.4595C122.624 29.6718 121.647 28.5923 120.947 27.221C120.246 25.8497 119.896 24.2743 119.896 22.4945V9.54048H125.411V22.0569C125.411 23.6907 125.804 24.9161 126.592 25.733C127.409 26.55 128.562 26.9584 130.05 26.9584C131.742 26.9584 133.055 26.4041 133.988 25.2954C134.922 24.1575 135.389 22.5821 135.389 20.5689V9.54048H140.903V35.0985C140.903 36.5864 140.465 37.7681 139.59 38.6433C138.715 39.5478 137.548 40 136.089 40H122.435Z" fill="black"/>
</svg>
