<svg width="345" height="106" viewBox="0 0 345 106" fill="none" xmlns="http://www.w3.org/2000/svg">
<path d="M152.248 77.896C146.701 77.896 142.307 76.36 139.064 73.288C135.821 70.1733 134.2 65.736 134.2 59.976V49.224C134.2 43.464 135.821 39.048 139.064 35.976C142.307 32.8613 146.701 31.304 152.248 31.304C157.752 31.304 161.997 32.8187 164.984 35.848C168.013 38.8347 169.528 42.952 169.528 48.2V48.584H161.208V47.944C161.208 45.2987 160.461 43.1227 158.968 41.416C157.517 39.7093 155.277 38.856 152.248 38.856C149.261 38.856 146.915 39.7733 145.208 41.608C143.501 43.4427 142.648 45.9387 142.648 49.096V60.104C142.648 63.2187 143.501 65.7147 145.208 67.592C146.915 69.4267 149.261 70.344 152.248 70.344C155.277 70.344 157.517 69.4907 158.968 67.784C160.461 66.0347 161.208 63.8587 161.208 61.256V60.104H169.528V61C169.528 66.248 168.013 70.3867 164.984 73.416C161.997 76.4027 157.752 77.896 152.248 77.896ZM191.772 77.896C188.614 77.896 185.777 77.256 183.26 75.976C180.742 74.696 178.758 72.84 177.308 70.408C175.857 67.976 175.132 65.0533 175.132 61.64V60.616C175.132 57.2027 175.857 54.28 177.308 51.848C178.758 49.416 180.742 47.56 183.26 46.28C185.777 45 188.614 44.36 191.772 44.36C194.929 44.36 197.766 45 200.284 46.28C202.801 47.56 204.785 49.416 206.236 51.848C207.686 54.28 208.412 57.2027 208.412 60.616V61.64C208.412 65.0533 207.686 67.976 206.236 70.408C204.785 72.84 202.801 74.696 200.284 75.976C197.766 77.256 194.929 77.896 191.772 77.896ZM191.772 70.728C194.246 70.728 196.294 69.9387 197.916 68.36C199.537 66.7387 200.348 64.4347 200.348 61.448V60.808C200.348 57.8213 199.537 55.5387 197.916 53.96C196.337 52.3387 194.289 51.528 191.772 51.528C189.297 51.528 187.249 52.3387 185.628 53.96C184.006 55.5387 183.196 57.8213 183.196 60.808V61.448C183.196 64.4347 184.006 66.7387 185.628 68.36C187.249 69.9387 189.297 70.728 191.772 70.728ZM215.855 77V32.2H223.919V77H215.855ZM251.927 77.896C249.068 77.896 246.871 77.4053 245.335 76.424C243.799 75.4427 242.668 74.3547 241.943 73.16H240.791V77H232.855V32.2H240.919V48.904H242.071C242.54 48.136 243.159 47.4107 243.927 46.728C244.738 46.0453 245.783 45.4907 247.063 45.064C248.386 44.5947 250.007 44.36 251.927 44.36C254.487 44.36 256.855 45 259.031 46.28C261.207 47.5173 262.956 49.352 264.279 51.784C265.602 54.216 266.263 57.16 266.263 60.616V61.64C266.263 65.096 265.602 68.04 264.279 70.472C262.956 72.904 261.207 74.76 259.031 76.04C256.855 77.2773 254.487 77.896 251.927 77.896ZM249.495 70.856C251.97 70.856 254.039 70.0667 255.703 68.488C257.367 66.8667 258.199 64.52 258.199 61.448V60.808C258.199 57.736 257.367 55.4107 255.703 53.832C254.082 52.2107 252.012 51.4 249.495 51.4C247.02 51.4 244.951 52.2107 243.287 53.832C241.623 55.4107 240.791 57.736 240.791 60.808V61.448C240.791 64.52 241.623 66.8667 243.287 68.488C244.951 70.0667 247.02 70.856 249.495 70.856ZM283.524 77.896C281.262 77.896 279.236 77.512 277.444 76.744C275.652 75.9333 274.222 74.7813 273.156 73.288C272.132 71.752 271.62 69.896 271.62 67.72C271.62 65.544 272.132 63.7307 273.156 62.28C274.222 60.7867 275.673 59.6773 277.508 58.952C279.385 58.184 281.518 57.8 283.908 57.8H292.612V56.008C292.612 54.5147 292.142 53.2987 291.204 52.36C290.265 51.3787 288.772 50.888 286.724 50.888C284.718 50.888 283.225 51.3573 282.244 52.296C281.262 53.192 280.622 54.3653 280.324 55.816L272.9 53.32C273.412 51.6987 274.222 50.2267 275.332 48.904C276.484 47.5387 277.998 46.4507 279.876 45.64C281.796 44.7867 284.121 44.36 286.852 44.36C291.033 44.36 294.34 45.4053 296.772 47.496C299.204 49.5867 300.42 52.616 300.42 56.584V68.424C300.42 69.704 301.017 70.344 302.212 70.344H304.772V77H299.396C297.817 77 296.516 76.616 295.492 75.848C294.468 75.08 293.956 74.056 293.956 72.776V72.712H292.74C292.569 73.224 292.185 73.9067 291.588 74.76C290.99 75.5707 290.052 76.296 288.772 76.936C287.492 77.576 285.742 77.896 283.524 77.896ZM284.932 71.368C287.193 71.368 289.028 70.7493 290.436 69.512C291.886 68.232 292.612 66.5467 292.612 64.456V63.816H284.484C282.99 63.816 281.817 64.136 280.964 64.776C280.11 65.416 279.684 66.312 279.684 67.464C279.684 68.616 280.132 69.5547 281.028 70.28C281.924 71.0053 283.225 71.368 284.932 71.368ZM313.249 89.8V82.76H330.529C331.723 82.76 332.321 82.12 332.321 80.84V72.84H331.169C330.827 73.5653 330.294 74.2907 329.569 75.016C328.843 75.7413 327.862 76.3387 326.625 76.808C325.387 77.2773 323.809 77.512 321.889 77.512C319.414 77.512 317.238 76.9573 315.361 75.848C313.526 74.696 312.097 73.1173 311.073 71.112C310.049 69.1067 309.536 66.8027 309.536 64.2V45.256H317.601V63.56C317.601 65.9493 318.177 67.7413 319.329 68.936C320.523 70.1307 322.209 70.728 324.385 70.728C326.859 70.728 328.779 69.9173 330.145 68.296C331.51 66.632 332.193 64.328 332.193 61.384V45.256H340.257V82.632C340.257 84.808 339.617 86.536 338.337 87.816C337.057 89.1387 335.35 89.8 333.217 89.8H313.249Z" fill="black"/>
<g filter="url(#filter0_d_41_264)">
<rect x="6" width="100" height="100" fill="url(#paint0_linear_41_264)"/>
<rect x="6.5" y="0.5" width="99" height="99" stroke="black"/>
</g>
<path d="M53.2482 75.896C47.7015 75.896 43.3069 74.36 40.0642 71.288C36.8215 68.1733 35.2002 63.736 35.2002 57.976V47.224C35.2002 41.464 36.8215 37.048 40.0642 33.976C43.3069 30.8613 47.7015 29.304 53.2482 29.304C58.7522 29.304 62.9975 30.8187 65.9842 33.848C69.0135 36.8347 70.5282 40.952 70.5282 46.2V46.584H62.2082V45.944C62.2082 43.2987 61.4615 41.1227 59.9682 39.416C58.5175 37.7093 56.2775 36.856 53.2482 36.856C50.2615 36.856 47.9149 37.7733 46.2082 39.608C44.5015 41.4427 43.6482 43.9387 43.6482 47.096V58.104C43.6482 61.2187 44.5015 63.7147 46.2082 65.592C47.9149 67.4267 50.2615 68.344 53.2482 68.344C56.2775 68.344 58.5175 67.4907 59.9682 65.784C61.4615 64.0347 62.2082 61.8587 62.2082 59.256V58.104H70.5282V59C70.5282 64.248 69.0135 68.3867 65.9842 71.416C62.9975 74.4027 58.7522 75.896 53.2482 75.896Z" fill="black"/>
<path fill-rule="evenodd" clip-rule="evenodd" d="M70.528 59.104C70.5081 64.3027 68.9935 68.4067 65.9842 71.416C62.9975 74.4027 58.7522 75.896 53.2482 75.896C47.7015 75.896 43.3069 74.36 40.0642 71.288C36.8215 68.1733 35.2002 63.736 35.2002 57.976V47.224C35.2002 41.464 36.8215 37.048 40.0642 33.976C43.3069 30.8613 47.7015 29.304 53.2482 29.304C58.7522 29.304 62.9975 30.8187 65.9842 33.848C68.894 36.7168 70.4063 40.6288 70.5211 45.584C70.5258 45.7876 70.5282 45.9929 70.5282 46.2V46.584H62.2082V45.944C62.2082 43.2987 61.4615 41.1227 59.9682 39.416C58.5175 37.7093 56.2775 36.856 53.2482 36.856C50.2615 36.856 47.9149 37.7733 46.2082 39.608C44.5015 41.4427 43.6482 43.9387 43.6482 47.096V58.104C43.6482 61.2187 44.5015 63.7147 46.2082 65.592C47.9149 67.4267 50.2615 68.344 53.2482 68.344C56.2775 68.344 58.5175 67.4907 59.9682 65.784C61.4615 64.0347 62.2082 61.8587 62.2082 59.256V58.104H70.5282V59C70.5282 59.0347 70.5281 59.0694 70.528 59.104ZM66.6914 33.1409C69.9505 36.3571 71.5282 40.7537 71.5282 46.2V47.584H61.2082V45.944C61.2082 43.4982 60.5234 41.5691 59.2156 40.0745L59.2109 40.0691L59.2063 40.0636C58.0064 38.6521 56.0933 37.856 53.2482 37.856C50.4814 37.856 48.4218 38.6966 46.9404 40.2891C45.4474 41.894 44.6482 44.1229 44.6482 47.096V58.104C44.6482 61.0267 45.4435 63.2619 46.9443 64.9151C48.4254 66.5049 50.4839 67.344 53.2482 67.344C56.0933 67.344 58.0064 66.5479 59.2063 65.1364L59.2076 65.1347C60.5261 63.5903 61.2082 61.654 61.2082 59.256V57.104H71.5282V59C71.5282 64.4498 69.9487 68.8657 66.6913 72.1231C63.4652 75.3492 58.9337 76.896 53.2482 76.896C47.5106 76.896 42.8472 75.302 39.3765 72.014L39.3714 72.0092C35.8811 68.6566 34.2002 63.9275 34.2002 57.976V47.224C34.2002 41.2747 35.88 36.564 39.3739 33.2524C42.8439 29.9208 47.5083 28.304 53.2482 28.304C58.9347 28.304 63.4663 29.8728 66.6914 33.1409Z" fill="black"/>
<path d="M56.2482 72.896C50.7015 72.896 46.3069 71.36 43.0642 68.288C39.8215 65.1733 38.2002 60.736 38.2002 54.976V44.224C38.2002 38.464 39.8215 34.048 43.0642 30.976C46.3069 27.8613 50.7015 26.304 56.2482 26.304C61.7522 26.304 65.9975 27.8187 68.9842 30.848C72.0135 33.8347 73.5282 37.952 73.5282 43.2V43.584H65.2082V42.944C65.2082 40.2987 64.4615 38.1227 62.9682 36.416C61.5175 34.7093 59.2775 33.856 56.2482 33.856C53.2615 33.856 50.9149 34.7733 49.2082 36.608C47.5015 38.4427 46.6482 40.9387 46.6482 44.096V55.104C46.6482 58.2187 47.5015 60.7147 49.2082 62.592C50.9149 64.4267 53.2615 65.344 56.2482 65.344C59.2775 65.344 61.5175 64.4907 62.9682 62.784C64.4615 61.0347 65.2082 58.8587 65.2082 56.256V55.104H73.5282V56C73.5282 61.248 72.0135 65.3867 68.9842 68.416C65.9975 71.4027 61.7522 72.896 56.2482 72.896Z" fill="white"/>
<path fill-rule="evenodd" clip-rule="evenodd" d="M73.528 56.104C73.5081 61.3027 71.9935 65.4067 68.9842 68.416C65.9975 71.4027 61.7522 72.896 56.2482 72.896C50.7015 72.896 46.3069 71.36 43.0642 68.288C39.8215 65.1733 38.2002 60.736 38.2002 54.976V44.224C38.2002 38.464 39.8215 34.048 43.0642 30.976C46.3069 27.8613 50.7015 26.304 56.2482 26.304C61.7522 26.304 65.9975 27.8187 68.9842 30.848C71.894 33.7168 73.4063 37.6288 73.5211 42.584C73.5258 42.7876 73.5282 42.9929 73.5282 43.2V43.584H65.2082V42.944C65.2082 40.2987 64.4615 38.1227 62.9682 36.416C61.5175 34.7093 59.2775 33.856 56.2482 33.856C53.2615 33.856 50.9149 34.7733 49.2082 36.608C47.5015 38.4427 46.6482 40.9387 46.6482 44.096V55.104C46.6482 58.2187 47.5015 60.7147 49.2082 62.592C50.9149 64.4267 53.2615 65.344 56.2482 65.344C59.2775 65.344 61.5175 64.4907 62.9682 62.784C64.4615 61.0347 65.2082 58.8587 65.2082 56.256V55.104H73.5282V56C73.5282 56.0347 73.5281 56.0694 73.528 56.104ZM69.6914 30.1409C72.9505 33.3571 74.5282 37.7537 74.5282 43.2V44.584H64.2082V42.944C64.2082 40.4982 63.5234 38.5691 62.2156 37.0745L62.2109 37.0691L62.2063 37.0636C61.0064 35.6521 59.0933 34.856 56.2482 34.856C53.4814 34.856 51.4218 35.6966 49.9404 37.2891C48.4474 38.894 47.6482 41.1229 47.6482 44.096V55.104C47.6482 58.0267 48.4435 60.2619 49.9443 61.9151C51.4254 63.5049 53.4839 64.344 56.2482 64.344C59.0933 64.344 61.0064 63.5479 62.2063 62.1364L62.2076 62.1347C63.5261 60.5903 64.2082 58.654 64.2082 56.256V54.104H74.5282V56C74.5282 61.4498 72.9487 65.8657 69.6913 69.1231C66.4652 72.3492 61.9337 73.896 56.2482 73.896C50.5106 73.896 45.8472 72.302 42.3765 69.014L42.3714 69.0092C38.8811 65.6566 37.2002 60.9275 37.2002 54.976V44.224C37.2002 38.2747 38.88 33.564 42.3739 30.2524C45.8439 26.9208 50.5083 25.304 56.2482 25.304C61.9347 25.304 66.4663 26.8728 69.6914 30.1409Z" fill="black"/>
<defs>
<filter id="filter0_d_41_264" x="0" y="0" width="106" height="106" filterUnits="userSpaceOnUse" color-interpolation-filters="sRGB">
<feFlood flood-opacity="0" result="BackgroundImageFix"/>
<feColorMatrix in="SourceAlpha" type="matrix" values="0 0 0 0 0 0 0 0 0 0 0 0 0 0 0 0 0 0 127 0" result="hardAlpha"/>
<feOffset dx="-6" dy="6"/>
<feComposite in2="hardAlpha" operator="out"/>
<feColorMatrix type="matrix" values="0 0 0 0 0 0 0 0 0 0 0 0 0 0 0 0 0 0 0.81 0"/>
<feBlend mode="normal" in2="BackgroundImageFix" result="effect1_dropShadow_41_264"/>
<feBlend mode="normal" in="SourceGraphic" in2="effect1_dropShadow_41_264" result="shape"/>
</filter>
<linearGradient id="paint0_linear_41_264" x1="6" y1="51.1111" x2="108.358" y2="51.1111" gradientUnits="userSpaceOnUse">
<stop stop-color="#92C6FC"/>
<stop offset="1" stop-color="#6FE6BA"/>
</linearGradient>
</defs>
</svg>
