<svg width="100" height="100" viewBox="0 0 100 100" fill="none" xmlns="http://www.w3.org/2000/svg">
<rect x="0.5" y="0.5" width="99" height="99" fill="url(#paint0_linear_48_287)" stroke="black"/>
<path d="M47.2482 75.896C41.7015 75.896 37.3069 74.36 34.0642 71.288C30.8215 68.1734 29.2002 63.736 29.2002 57.976V47.224C29.2002 41.464 30.8215 37.048 34.0642 33.976C37.3069 30.8613 41.7015 29.304 47.2482 29.304C52.7522 29.304 56.9975 30.8187 59.9842 33.848C63.0135 36.8347 64.5282 40.952 64.5282 46.2V46.584H56.2082V45.944C56.2082 43.2987 55.4615 41.1227 53.9682 39.416C52.5175 37.7094 50.2775 36.856 47.2482 36.856C44.2615 36.856 41.9149 37.7734 40.2082 39.608C38.5015 41.4427 37.6482 43.9387 37.6482 47.096V58.104C37.6482 61.2187 38.5015 63.7147 40.2082 65.592C41.9149 67.4267 44.2615 68.344 47.2482 68.344C50.2775 68.344 52.5175 67.4907 53.9682 65.784C55.4615 64.0347 56.2082 61.8587 56.2082 59.256V58.104H64.5282V59C64.5282 64.248 63.0135 68.3867 59.9842 71.416C56.9975 74.4027 52.7522 75.896 47.2482 75.896Z" fill="black"/>
<path fill-rule="evenodd" clip-rule="evenodd" d="M64.528 59.104C64.5081 64.3027 62.9935 68.4067 59.9842 71.416C56.9975 74.4027 52.7522 75.896 47.2482 75.896C41.7015 75.896 37.3069 74.36 34.0642 71.288C30.8215 68.1734 29.2002 63.736 29.2002 57.976V47.224C29.2002 41.464 30.8215 37.048 34.0642 33.976C37.3069 30.8613 41.7015 29.304 47.2482 29.304C52.7522 29.304 56.9975 30.8187 59.9842 33.848C62.894 36.7168 64.4063 40.6288 64.5211 45.584C64.5258 45.7876 64.5282 45.9929 64.5282 46.2V46.584H56.2082V45.944C56.2082 43.2987 55.4615 41.1227 53.9682 39.416C52.5175 37.7094 50.2775 36.856 47.2482 36.856C44.2615 36.856 41.9149 37.7734 40.2082 39.608C38.5015 41.4427 37.6482 43.9387 37.6482 47.096V58.104C37.6482 61.2187 38.5015 63.7147 40.2082 65.592C41.9149 67.4267 44.2615 68.344 47.2482 68.344C50.2775 68.344 52.5175 67.4907 53.9682 65.784C55.4615 64.0347 56.2082 61.8587 56.2082 59.256V58.104H64.5282V59C64.5282 59.0347 64.5281 59.0694 64.528 59.104ZM60.6914 33.141C63.9505 36.3572 65.5282 40.7537 65.5282 46.2V47.584H55.2082V45.944C55.2082 43.4982 54.5234 41.5691 53.2156 40.0745L53.2109 40.0691L53.2063 40.0637C52.0064 38.6521 50.0933 37.856 47.2482 37.856C44.4814 37.856 42.4218 38.6966 40.9404 40.2891C39.4474 41.8941 38.6482 44.1229 38.6482 47.096V58.104C38.6482 61.0267 39.4435 63.2619 40.9443 64.9151C42.4254 66.5049 44.4839 67.344 47.2482 67.344C50.0933 67.344 52.0064 66.5479 53.2063 65.1364L53.2076 65.1348C54.5261 63.5903 55.2082 61.654 55.2082 59.256V57.104H65.5282V59C65.5282 64.4498 63.9487 68.8657 60.6913 72.1231C57.4652 75.3492 52.9337 76.896 47.2482 76.896C41.5106 76.896 36.8472 75.302 33.3765 72.014L33.3714 72.0092C29.8811 68.6566 28.2002 63.9276 28.2002 57.976V47.224C28.2002 41.2747 29.88 36.564 33.3739 33.2525C36.8439 29.9208 41.5083 28.304 47.2482 28.304C52.9347 28.304 57.4663 29.8729 60.6914 33.141Z" fill="black"/>
<path d="M50.2482 72.896C44.7015 72.896 40.3069 71.36 37.0642 68.288C33.8215 65.1734 32.2002 60.736 32.2002 54.976V44.224C32.2002 38.464 33.8215 34.048 37.0642 30.976C40.3069 27.8613 44.7015 26.304 50.2482 26.304C55.7522 26.304 59.9975 27.8187 62.9842 30.848C66.0135 33.8347 67.5282 37.952 67.5282 43.2V43.584H59.2082V42.944C59.2082 40.2987 58.4615 38.1227 56.9682 36.416C55.5175 34.7094 53.2775 33.856 50.2482 33.856C47.2615 33.856 44.9149 34.7734 43.2082 36.608C41.5015 38.4427 40.6482 40.9387 40.6482 44.096V55.104C40.6482 58.2187 41.5015 60.7147 43.2082 62.592C44.9149 64.4267 47.2615 65.344 50.2482 65.344C53.2775 65.344 55.5175 64.4907 56.9682 62.784C58.4615 61.0347 59.2082 58.8587 59.2082 56.256V55.104H67.5282V56C67.5282 61.248 66.0135 65.3867 62.9842 68.416C59.9975 71.4027 55.7522 72.896 50.2482 72.896Z" fill="white"/>
<path fill-rule="evenodd" clip-rule="evenodd" d="M67.528 56.104C67.5081 61.3027 65.9935 65.4067 62.9842 68.416C59.9975 71.4027 55.7522 72.896 50.2482 72.896C44.7015 72.896 40.3069 71.36 37.0642 68.288C33.8215 65.1734 32.2002 60.736 32.2002 54.976V44.224C32.2002 38.464 33.8215 34.048 37.0642 30.976C40.3069 27.8613 44.7015 26.304 50.2482 26.304C55.7522 26.304 59.9975 27.8187 62.9842 30.848C65.894 33.7168 67.4063 37.6288 67.5211 42.584C67.5258 42.7876 67.5282 42.9929 67.5282 43.2V43.584H59.2082V42.944C59.2082 40.2987 58.4615 38.1227 56.9682 36.416C55.5175 34.7094 53.2775 33.856 50.2482 33.856C47.2615 33.856 44.9149 34.7734 43.2082 36.608C41.5015 38.4427 40.6482 40.9387 40.6482 44.096V55.104C40.6482 58.2187 41.5015 60.7147 43.2082 62.592C44.9149 64.4267 47.2615 65.344 50.2482 65.344C53.2775 65.344 55.5175 64.4907 56.9682 62.784C58.4615 61.0347 59.2082 58.8587 59.2082 56.256V55.104H67.5282V56C67.5282 56.0347 67.5281 56.0694 67.528 56.104ZM63.6914 30.141C66.9505 33.3572 68.5282 37.7537 68.5282 43.2V44.584H58.2082V42.944C58.2082 40.4982 57.5234 38.5691 56.2156 37.0745L56.2109 37.0691L56.2063 37.0637C55.0064 35.6521 53.0933 34.856 50.2482 34.856C47.4814 34.856 45.4218 35.6966 43.9404 37.2891C42.4474 38.8941 41.6482 41.1229 41.6482 44.096V55.104C41.6482 58.0267 42.4435 60.2619 43.9443 61.9151C45.4254 63.5049 47.4839 64.344 50.2482 64.344C53.0933 64.344 55.0064 63.5479 56.2063 62.1364L56.2076 62.1348C57.5261 60.5903 58.2082 58.654 58.2082 56.256V54.104H68.5282V56C68.5282 61.4498 66.9487 65.8657 63.6913 69.1231C60.4652 72.3492 55.9337 73.896 50.2482 73.896C44.5106 73.896 39.8472 72.302 36.3765 69.014L36.3714 69.0092C32.8811 65.6566 31.2002 60.9276 31.2002 54.976V44.224C31.2002 38.2747 32.88 33.564 36.3739 30.2525C39.8439 26.9208 44.5083 25.304 50.2482 25.304C55.9347 25.304 60.4663 26.8729 63.6914 30.141Z" fill="black"/>
<defs>
<linearGradient id="paint0_linear_48_287" x1="-3.58272e-07" y1="51.1111" x2="102.358" y2="51.1111" gradientUnits="userSpaceOnUse">
<stop stop-color="#92C6FC"/>
<stop offset="1" stop-color="#6FE6BA"/>
</linearGradient>
</defs>
</svg>
